<svg width="893" height="680" viewBox="0 0 893 680" fill="none" xmlns="http://www.w3.org/2000/svg"><path d="M816.903 619.169C865.637 579.649 888.914 513.24 874.342 449.89C873.98 448.316 873.598 446.746 873.195 445.179C863.535 407.575 839.633 371.836 804.798 359.82C775.549 349.732 743.622 357.49 713.108 353.478C653.207 345.602 606.766 294.001 574.09 239.975C541.413 185.948 516.3 125.473 472.88 80.8388C401.309 7.26728 284.559 -8.57273 195.821 39.3168C107.083 87.2066 50.5583 193.454 52.969 299.342C55.3797 405.231 114.423 506.468 200.17 560.181C231.669 579.913 268.102 593.891 304.359 589C335.82 584.755 364.405 566.758 395.718 561.415C444.948 553.015 493.864 576.712 536.444 604.327C579.024 631.942 620.154 664.674 668.541 677.477C715.524 689.907 773.732 654.177 816.903 619.169Z" fill="url(#paint0_linear_893_29)"></path><path d="M801.671 72.3286C800.603 71.5703 799.523 70.8512 798.455 70.119C767.581 49.0896 734.489 32.0054 699.862 19.2196L691.833 137.179H640.935V2.00041C637.731 1.29438 634.502 0.62758 631.273 0V137.179H570.787C537.489 137.179 505.554 123.091 482.009 98.0148C458.463 72.9386 445.235 38.928 445.235 3.46492C441.994 4.21017 438.778 5.0076 435.562 5.85745V137.179H386.296L378.648 24.6979C343.064 39.232 309.282 58.3451 278.054 81.6116C277.514 82.0039 276.974 82.4092 276.446 82.8014C273.733 84.828 271.057 86.8938 268.393 88.9857V539H413.587L411.021 501.149L396.903 293.328H681.214L667.096 501.149L664.53 539H808.116V76.8786C805.98 75.3359 803.832 73.8192 801.671 72.3286ZM435.562 259.008H394.57L386.996 147.481H435.562V259.008ZM631.274 259.008H562.427V256.798C562.427 255.736 562.23 254.684 561.848 253.703C561.466 252.722 560.906 251.83 560.201 251.08C559.495 250.329 558.657 249.734 557.735 249.329C556.813 248.924 555.825 248.716 554.828 248.718H524.898C523.901 248.718 522.915 248.926 521.994 249.332C521.073 249.738 520.237 250.333 519.532 251.084C518.828 251.834 518.269 252.725 517.888 253.705C517.506 254.686 517.31 255.737 517.311 256.798V259.008H445.236V147.481H631.274V259.008ZM640.935 259.008V147.481H691.134L683.559 259.008H640.935Z" fill="#3F3D56" fill-opacity="0.35"></path><path d="M0 537C9.85248 550.404 20.509 563.001 31.8918 574.698L860.465 576C871.847 564.303 882.504 551.706 892.356 538.302L0 537Z" fill="#3F3D56"></path><path d="M608.291 415.387V527.607C608.292 529.037 608.827 530.408 609.778 531.419C610.729 532.43 612.018 532.999 613.363 533H769.74C771.085 532.999 772.375 532.43 773.326 531.419C774.276 530.408 774.811 529.037 774.812 527.607V415.387C774.809 413.959 774.273 412.589 773.323 411.58C772.372 410.57 771.084 410.002 769.74 410H613.363C612.019 410.002 610.731 410.57 609.781 411.58C608.83 412.589 608.294 413.959 608.291 415.387Z" fill="#3F3D56"></path><path d="M612.209 416.883V526.123C612.21 526.885 612.496 527.617 613.002 528.156C613.508 528.695 614.195 528.999 614.911 529H768.192C768.908 528.999 769.595 528.695 770.101 528.156C770.608 527.617 770.893 526.885 770.894 526.123V416.883C770.894 416.12 770.609 415.387 770.103 414.847C769.596 414.306 768.909 414.002 768.192 414H614.911C614.194 414.002 613.507 414.306 613 414.847C612.494 415.387 612.209 416.12 612.209 416.883Z" fill="#030116" fill-opacity="0.8"></path><path d="M605.065 549.762C605.351 550.151 605.715 550.464 606.129 550.678C606.542 550.892 606.996 551.002 607.455 551H774.678C775.135 550.999 775.586 550.888 775.999 550.675C776.412 550.462 776.775 550.152 777.063 549.768C777.352 549.383 777.557 548.934 777.664 548.453C777.772 547.972 777.779 547.471 777.685 546.987L775.089 533.642C774.982 533.098 774.75 532.591 774.416 532.169C774.081 531.746 773.654 531.421 773.174 531.223C772.826 531.075 772.455 531 772.082 531H610.04C609.667 531 609.296 531.075 608.948 531.223C608.468 531.421 608.041 531.746 607.706 532.169C607.372 532.591 607.14 533.098 607.032 533.642L604.437 546.987C604.344 547.471 604.353 547.971 604.461 548.451C604.57 548.931 604.776 549.379 605.065 549.762Z" fill="#2F2E41"></path><path d="M765.702 537H770.209C770.587 537 770.894 536.652 770.894 536.223V533.777C770.894 533.348 770.587 533 770.209 533H765.702C765.324 533 765.017 533.348 765.017 533.777V536.223C765.017 536.652 765.324 537 765.702 537Z" fill="#3F3D56"></path><path d="M755.792 537H759.548C759.864 537 760.119 536.652 760.119 536.223V533.777C760.119 533.348 759.864 533 759.548 533H755.792C755.477 533 755.221 533.348 755.221 533.777V536.223C755.221 536.652 755.477 537 755.792 537Z" fill="#3F3D56"></path><path d="M745.132 537H749.639C750.017 537 750.324 536.652 750.324 536.223V533.777C750.324 533.348 750.017 533 749.639 533H745.132C744.753 533 744.447 533.348 744.447 533.777V536.223C744.447 536.652 744.753 537 745.132 537Z" fill="#3F3D56"></path><path d="M735.222 537H738.978C739.293 537 739.549 536.652 739.549 536.223V533.777C739.549 533.348 739.293 533 738.978 533H735.222C734.907 533 734.651 533.348 734.651 533.777V536.223C734.651 536.652 734.907 537 735.222 537Z" fill="#3F3D56"></path><path d="M724.561 537H729.068C729.447 537 729.753 536.652 729.753 536.223V533.777C729.753 533.348 729.447 533 729.068 533H724.561C724.183 533 723.876 533.348 723.876 533.777V536.223C723.876 536.652 724.183 537 724.561 537Z" fill="#3F3D56"></path><path d="M714.652 537H718.408C718.723 537 718.979 536.652 718.979 536.223V533.777C718.979 533.348 718.723 533 718.408 533H714.652C714.336 533 714.081 533.348 714.081 533.777V536.223C714.081 536.652 714.336 537 714.652 537Z" fill="#3F3D56"></path><path d="M703.991 537H708.498C708.876 537 709.183 536.652 709.183 536.223V533.777C709.183 533.348 708.876 533 708.498 533H703.991C703.613 533 703.306 533.348 703.306 533.777V536.223C703.306 536.652 703.613 537 703.991 537Z" fill="#3F3D56"></path><path d="M694.082 537H697.838C698.153 537 698.408 536.652 698.408 536.223V533.777C698.408 533.348 698.153 533 697.838 533H694.082C693.766 533 693.511 533.348 693.511 533.777V536.223C693.511 536.652 693.766 537 694.082 537Z" fill="#3F3D56"></path><path d="M683.421 537H687.928C688.306 537 688.613 536.652 688.613 536.223V533.777C688.613 533.348 688.306 533 687.928 533H683.421C683.043 533 682.736 533.348 682.736 533.777V536.223C682.736 536.652 683.043 537 683.421 537Z" fill="#3F3D56"></path><path d="M673.511 537H677.267C677.583 537 677.838 536.652 677.838 536.223V533.777C677.838 533.348 677.583 533 677.267 533H673.511C673.196 533 672.94 533.348 672.94 533.777V536.223C672.94 536.652 673.196 537 673.511 537Z" fill="#3F3D56"></path><path d="M662.85 537H667.358C667.736 537 668.043 536.652 668.043 536.223V533.777C668.043 533.348 667.736 533 667.358 533H662.85C662.472 533 662.166 533.348 662.166 533.777V536.223C662.166 536.652 662.472 537 662.85 537Z" fill="#3F3D56"></path><path d="M652.941 537H656.697C657.012 537 657.268 536.652 657.268 536.223V533.777C657.268 533.348 657.012 533 656.697 533H652.941C652.626 533 652.37 533.348 652.37 533.777V536.223C652.37 536.652 652.626 537 652.941 537Z" fill="#3F3D56"></path><path d="M642.28 537H646.788C647.166 537 647.473 536.652 647.473 536.223V533.777C647.473 533.348 647.166 533 646.788 533H642.28C641.902 533 641.595 533.348 641.595 533.777V536.223C641.595 536.652 641.902 537 642.28 537Z" fill="#3F3D56"></path><path d="M632.371 537H636.127C636.442 537 636.698 536.652 636.698 536.223V533.777C636.698 533.348 636.442 533 636.127 533H632.371C632.056 533 631.8 533.348 631.8 533.777V536.223C631.8 536.652 632.056 537 632.371 537Z" fill="#3F3D56"></path><path d="M621.71 537H626.217C626.596 537 626.902 536.652 626.902 536.223V533.777C626.902 533.348 626.596 533 626.217 533H621.71C621.332 533 621.025 533.348 621.025 533.777V536.223C621.025 536.652 621.332 537 621.71 537Z" fill="#3F3D56"></path><path d="M611.801 537H615.557C615.872 537 616.127 536.652 616.127 536.223V533.777C616.127 533.348 615.872 533 615.557 533H611.801C611.485 533 611.23 533.348 611.23 533.777V536.223C611.23 536.652 611.485 537 611.801 537Z" fill="#3F3D56"></path><path d="M766.567 542H770.323C770.638 542 770.894 541.739 770.894 541.417V539.583C770.894 539.261 770.638 539 770.323 539H766.567C766.252 539 765.996 539.261 765.996 539.583V541.417C765.996 541.739 766.252 542 766.567 542Z" fill="#3F3D56"></path><path d="M755.792 542H759.548C759.864 542 760.119 541.739 760.119 541.417V539.583C760.119 539.261 759.864 539 759.548 539H755.792C755.477 539 755.221 539.261 755.221 539.583V541.417C755.221 541.739 755.477 542 755.792 542Z" fill="#3F3D56"></path><path d="M745.997 542H749.753C750.068 542 750.324 541.739 750.324 541.417V539.583C750.324 539.261 750.068 539 749.753 539H745.997C745.682 539 745.426 539.261 745.426 539.583V541.417C745.426 541.739 745.682 542 745.997 542Z" fill="#3F3D56"></path><path d="M735.222 542H738.978C739.293 542 739.549 541.739 739.549 541.417V539.583C739.549 539.261 739.293 539 738.978 539H735.222C734.907 539 734.651 539.261 734.651 539.583V541.417C734.651 541.739 734.907 542 735.222 542Z" fill="#3F3D56"></path><path d="M725.427 542H729.183C729.498 542 729.753 541.739 729.753 541.417V539.583C729.753 539.261 729.498 539 729.183 539H725.427C725.111 539 724.856 539.261 724.856 539.583V541.417C724.856 541.739 725.111 542 725.427 542Z" fill="#3F3D56"></path><path d="M714.652 542H718.408C718.723 542 718.979 541.739 718.979 541.417V539.583C718.979 539.261 718.723 539 718.408 539H714.652C714.336 539 714.081 539.261 714.081 539.583V541.417C714.081 541.739 714.336 542 714.652 542Z" fill="#3F3D56"></path><path d="M704.856 542H708.612C708.927 542 709.183 541.739 709.183 541.417V539.583C709.183 539.261 708.927 539 708.612 539H704.856C704.541 539 704.285 539.261 704.285 539.583V541.417C704.285 541.739 704.541 542 704.856 542Z" fill="#3F3D56"></path><path d="M694.082 542H697.838C698.153 542 698.408 541.739 698.408 541.417V539.583C698.408 539.261 698.153 539 697.838 539H694.082C693.766 539 693.511 539.261 693.511 539.583V541.417C693.511 541.739 693.766 542 694.082 542Z" fill="#3F3D56"></path><path d="M684.286 542H688.042C688.357 542 688.613 541.739 688.613 541.417V539.583C688.613 539.261 688.357 539 688.042 539H684.286C683.971 539 683.715 539.261 683.715 539.583V541.417C683.715 541.739 683.971 542 684.286 542Z" fill="#3F3D56"></path><path d="M673.511 542H677.267C677.583 542 677.838 541.739 677.838 541.417V539.583C677.838 539.261 677.583 539 677.267 539H673.511C673.196 539 672.94 539.261 672.94 539.583V541.417C672.94 541.739 673.196 542 673.511 542Z" fill="#3F3D56"></path><path d="M663.716 542H667.472C667.787 542 668.043 541.739 668.043 541.417V539.583C668.043 539.261 667.787 539 667.472 539H663.716C663.401 539 663.145 539.261 663.145 539.583V541.417C663.145 541.739 663.401 542 663.716 542Z" fill="#3F3D56"></path><path d="M652.941 542H656.697C657.012 542 657.268 541.739 657.268 541.417V539.583C657.268 539.261 657.012 539 656.697 539H652.941C652.626 539 652.37 539.261 652.37 539.583V541.417C652.37 541.739 652.626 542 652.941 542Z" fill="#3F3D56"></path><path d="M643.146 542H646.902C647.217 542 647.473 541.739 647.473 541.417V539.583C647.473 539.261 647.217 539 646.902 539H643.146C642.831 539 642.575 539.261 642.575 539.583V541.417C642.575 541.739 642.831 542 643.146 542Z" fill="#3F3D56"></path><path d="M632.371 542H636.127C636.442 542 636.698 541.739 636.698 541.417V539.583C636.698 539.261 636.442 539 636.127 539H632.371C632.056 539 631.8 539.261 631.8 539.583V541.417C631.8 541.739 632.056 542 632.371 542Z" fill="#3F3D56"></path><path d="M622.575 542H626.332C626.647 542 626.902 541.739 626.902 541.417V539.583C626.902 539.261 626.647 539 626.332 539H622.575C622.26 539 622.005 539.261 622.005 539.583V541.417C622.005 541.739 622.26 542 622.575 542Z" fill="#3F3D56"></path><path d="M611.801 542H615.557C615.872 542 616.127 541.739 616.127 541.417V539.583C616.127 539.261 615.872 539 615.557 539H611.801C611.485 539 611.23 539.261 611.23 539.583V541.417C611.23 541.739 611.485 542 611.801 542Z" fill="#3F3D56"></path><path d="M680.397 549H720.338C720.669 549 720.938 548.652 720.938 548.223V545.777C720.938 545.348 720.669 545 720.338 545H680.397C680.066 545 679.797 545.348 679.797 545.777V548.223C679.797 548.652 680.066 549 680.397 549Z" fill="#3F3D56"></path><g><path d="M638.565 438H634.83C633.698 438 632.78 438.895 632.78 440C632.78 441.105 633.698 442 634.83 442H638.565C639.698 442 640.616 441.105 640.616 440C640.616 438.895 639.698 438 638.565 438Z" fill="white" opacity="0"></path><path d="M678.726 438H674.991C673.858 438 672.94 438.895 672.94 440C672.94 441.105 673.858 442 674.991 442H678.726C679.859 442 680.777 441.105 680.777 440C680.777 438.895 679.859 438 678.726 438Z" fill="white" opacity="0"></path><path d="M689.757 438H686.489C685.498 438 684.695 438.895 684.695 440C684.695 441.105 685.498 442 686.489 442H689.757C690.748 442 691.552 441.105 691.552 440C691.552 438.895 690.748 438 689.757 438Z" fill="white" opacity="0"></path><path d="M667.111 438H645.466C644.41 438 643.554 438.895 643.554 440C643.554 441.105 644.41 442 645.466 442H667.111C668.166 442 669.022 441.105 669.022 440C669.022 438.895 668.166 438 667.111 438Z" fill="white" opacity="0"></path><path d="M720.985 438H699.341C698.285 438 697.429 438.895 697.429 440C697.429 441.105 698.285 442 699.341 442H720.985C722.041 442 722.897 441.105 722.897 440C722.897 438.895 722.041 438 720.985 438Z" fill="white" opacity="0"></path><path d="M649.34 447H645.605C644.473 447 643.554 447.895 643.554 449C643.554 450.105 644.473 451 645.605 451H649.34C650.473 451 651.391 450.105 651.391 449C651.391 447.895 650.473 447 649.34 447Z" fill="white" opacity="0"></path><path d="M688.778 447H685.51C684.519 447 683.715 447.895 683.715 449C683.715 450.105 684.519 451 685.51 451H688.778C689.769 451 690.572 450.105 690.572 449C690.572 447.895 689.769 447 688.778 447Z" fill="white" opacity="0"></path><path d="M700.276 447H696.541C695.408 447 694.49 447.895 694.49 449C694.49 450.105 695.408 451 696.541 451H700.276C701.408 451 702.327 450.105 702.327 449C702.327 447.895 701.408 447 700.276 447Z" fill="white" opacity="0"></path><path d="M677.885 447H656.241C655.185 447 654.329 447.895 654.329 449C654.329 450.105 655.185 451 656.241 451H677.885C678.941 451 679.797 450.105 679.797 449C679.797 447.895 678.941 447 677.885 447Z" fill="white" opacity="0"></path><path d="M731.76 447H710.115C709.06 447 708.204 447.895 708.204 449C708.204 450.105 709.06 451 710.115 451H731.76C732.816 451 733.672 450.105 733.672 449C733.672 447.895 732.816 447 731.76 447Z" fill="white" opacity="0"></path><path d="M660.115 456H656.38C655.247 456 654.329 456.895 654.329 458C654.329 459.105 655.247 460 656.38 460H660.115C661.248 460 662.166 459.105 662.166 458C662.166 456.895 661.248 456 660.115 456Z" fill="white" opacity="0"></path><path d="M699.553 456H696.284C695.293 456 694.49 456.895 694.49 458C694.49 459.105 695.293 460 696.284 460H699.553C700.544 460 701.347 459.105 701.347 458C701.347 456.895 700.544 456 699.553 456Z" fill="white" opacity="0"></path><path d="M711.051 456H707.316C706.183 456 705.265 456.895 705.265 458C705.265 459.105 706.183 460 707.316 460H711.051C712.183 460 713.101 459.105 713.101 458C713.101 456.895 712.183 456 711.051 456Z" fill="white" opacity="0"></path><path d="M688.66 456H667.016C665.96 456 665.104 456.895 665.104 458C665.104 459.105 665.96 460 667.016 460H688.66C689.716 460 690.572 459.105 690.572 458C690.572 456.895 689.716 456 688.66 456Z" fill="white" opacity="0"></path><path d="M742.461 456H719.984C718.888 456 717.999 456.895 717.999 458C717.999 459.105 718.888 460 719.984 460H742.461C743.558 460 744.446 459.105 744.446 458C744.446 456.895 743.558 456 742.461 456Z" fill="white" opacity="0"></path><path d="M670.167 466H666.898C665.908 466 665.104 466.895 665.104 468C665.104 469.105 665.908 470 666.898 470H670.167C671.158 470 671.961 469.105 671.961 468C671.961 466.895 671.158 466 670.167 466Z" fill="white" opacity="0"></path><path d="M710.328 466H707.059C706.068 466 705.265 466.895 705.265 468C705.265 469.105 706.068 470 707.059 470H710.328C711.319 470 712.122 469.105 712.122 468C712.122 466.895 711.319 466 710.328 466Z" fill="white" opacity="0"></path><path d="M721.826 466H718.091C716.958 466 716.04 466.895 716.04 468C716.04 469.105 716.958 470 718.091 470H721.826C722.958 470 723.876 469.105 723.876 468C723.876 466.895 722.958 466 721.826 466Z" fill="white" opacity="0"></path><path d="M699.435 465H677.791C676.735 465 675.879 465.895 675.879 467C675.879 468.105 676.735 469 677.791 469H699.435C700.491 469 701.347 468.105 701.347 467C701.347 465.895 700.491 465 699.435 465Z" fill="white" opacity="0"></path><path d="M678.726 502H674.991C673.858 502 672.94 502.895 672.94 504C672.94 505.105 673.858 506 674.991 506H678.726C679.859 506 680.777 505.105 680.777 504C680.777 502.895 679.859 502 678.726 502Z" fill="white" opacity="0"></path><path d="M689.757 502H686.489C685.498 502 684.695 502.895 684.695 504C684.695 505.105 685.498 506 686.489 506H689.757C690.748 506 691.552 505.105 691.552 504C691.552 502.895 690.748 502 689.757 502Z" fill="white" opacity="0"></path><path d="M720.985 503H699.341C698.285 503 697.429 503.895 697.429 505C697.429 506.105 698.285 507 699.341 507H720.985C722.041 507 722.897 506.105 722.897 505C722.897 503.895 722.041 503 720.985 503Z" fill="white" opacity="0"></path><path d="M638.565 502H634.83C633.698 502 632.78 502.895 632.78 504C632.78 505.105 633.698 506 634.83 506H638.565C639.698 506 640.616 505.105 640.616 504C640.616 502.895 639.698 502 638.565 502Z" fill="white" opacity="0"></path><path d="M667.111 503H645.466C644.41 503 643.554 503.895 643.554 505C643.554 506.105 644.41 507 645.466 507H667.111C668.166 507 669.022 506.105 669.022 505C669.022 503.895 668.166 503 667.111 503Z" fill="white" opacity="0"></path><path d="M649.34 493H645.605C644.473 493 643.554 493.895 643.554 495C643.554 496.105 644.473 497 645.605 497H649.34C650.473 497 651.391 496.105 651.391 495C651.391 493.895 650.473 493 649.34 493Z" fill="white" opacity="0"></path><path d="M688.778 493H685.51C684.519 493 683.715 493.895 683.715 495C683.715 496.105 684.519 497 685.51 497H688.778C689.769 497 690.572 496.105 690.572 495C690.572 493.895 689.769 493 688.778 493Z" fill="white" opacity="0"></path><path d="M700.276 493H696.541C695.408 493 694.49 493.895 694.49 495C694.49 496.105 695.408 497 696.541 497H700.276C701.408 497 702.327 496.105 702.327 495C702.327 493.895 701.408 493 700.276 493Z" fill="white" opacity="0"></path><path d="M677.885 493H656.241C655.185 493 654.329 493.895 654.329 495C654.329 496.105 655.185 497 656.241 497H677.885C678.941 497 679.797 496.105 679.797 495C679.797 493.895 678.941 493 677.885 493Z" fill="white" opacity="0"></path><path d="M660.115 484H656.38C655.247 484 654.329 484.895 654.329 486C654.329 487.105 655.247 488 656.38 488H660.115C661.248 488 662.166 487.105 662.166 486C662.166 484.895 661.248 484 660.115 484Z" fill="white" opacity="0"></path><path d="M699.553 484H696.284C695.293 484 694.49 484.895 694.49 486C694.49 487.105 695.293 488 696.284 488H699.553C700.544 488 701.347 487.105 701.347 486C701.347 484.895 700.544 484 699.553 484Z" fill="white" opacity="0"></path><path d="M711.051 484H707.316C706.183 484 705.265 484.895 705.265 486C705.265 487.105 706.183 488 707.316 488H711.051C712.183 488 713.101 487.105 713.101 486C713.101 484.895 712.183 484 711.051 484Z" fill="white" opacity="0"></path><path d="M688.66 484H667.016C665.96 484 665.104 484.895 665.104 486C665.104 487.105 665.96 488 667.016 488H688.66C689.716 488 690.572 487.105 690.572 486C690.572 484.895 689.716 484 688.66 484Z" fill="white" opacity="0"></path><path d="M670.167 475H666.898C665.908 475 665.104 475.895 665.104 477C665.104 478.105 665.908 479 666.898 479H670.167C671.158 479 671.961 478.105 671.961 477C671.961 475.895 671.158 475 670.167 475Z" fill="white" opacity="0"></path><path d="M710.328 475H707.059C706.068 475 705.265 475.895 705.265 477C705.265 478.105 706.068 479 707.059 479H710.328C711.319 479 712.122 478.105 712.122 477C712.122 475.895 711.319 475 710.328 475Z" fill="white" opacity="0"></path><path d="M721.826 475H718.091C716.958 475 716.04 475.895 716.04 477C716.04 478.105 716.958 479 718.091 479H721.826C722.958 479 723.876 478.105 723.876 477C723.876 475.895 722.958 475 721.826 475Z" fill="white" opacity="0"></path><path d="M699.435 475H677.791C676.735 475 675.879 475.895 675.879 477C675.879 478.105 676.735 479 677.791 479H699.435C700.491 479 701.347 478.105 701.347 477C701.347 475.895 700.491 475 699.435 475Z" fill="white" opacity="0"></path></g><path d="M256.538 410.122V544.179H352.695V410.122C352.697 409.158 352.382 408.219 351.796 407.443C351.211 406.666 350.386 406.094 349.443 405.809C348.998 405.666 348.533 405.595 348.065 405.6H261.182C260.573 405.599 259.97 405.715 259.407 405.942C258.844 406.168 258.332 406.501 257.901 406.921C257.469 407.341 257.127 407.84 256.893 408.389C256.659 408.939 256.539 409.528 256.538 410.122ZM294.064 456.185C294.089 453.542 295.182 451.016 297.104 449.156C299.026 447.295 301.623 446.252 304.329 446.252C307.035 446.252 309.632 447.295 311.554 449.156C313.476 451.016 314.569 453.542 314.594 456.185V471.739C314.58 474.389 313.492 476.926 311.569 478.795C309.645 480.664 307.042 481.714 304.329 481.714C301.616 481.714 299.013 480.664 297.089 478.795C295.166 476.926 294.078 474.389 294.064 471.739V456.185Z" fill="#2F2E41"></path><path d="M256.244 539.892V552.819C256.246 553.488 256.519 554.13 257.002 554.605C257.486 555.08 258.141 555.349 258.827 555.355H350.407C351.093 555.351 351.75 555.083 352.234 554.607C352.718 554.132 352.99 553.489 352.99 552.819V539.892H256.244Z" fill="#3F3D56"></path><path d="M105.271 208.149V452.917C105.273 456.036 106.543 459.027 108.801 461.232C111.059 463.438 114.122 464.678 117.315 464.681H488.693C491.887 464.678 494.949 463.438 497.207 461.232C499.465 459.027 500.735 456.036 500.738 452.917V208.149C500.73 205.032 499.458 202.046 497.201 199.843C494.943 197.641 491.884 196.402 488.693 196.398H117.315C114.124 196.402 111.065 197.641 108.808 199.843C106.55 202.046 105.278 205.032 105.271 208.149Z" fill="#3F3D56"></path><path d="M113.983 211.194V449.897C113.986 451.564 114.665 453.162 115.872 454.34C117.078 455.518 118.714 456.182 120.42 456.185H485.602C487.308 456.182 488.944 455.518 490.15 454.34C491.357 453.162 492.036 451.564 492.039 449.897V211.194C492.039 209.526 491.361 207.925 490.154 206.744C488.947 205.563 487.31 204.898 485.602 204.894H120.42C118.712 204.898 117.075 205.563 115.868 206.744C114.661 207.925 113.983 209.526 113.983 211.194Z" fill="#030116"></path><g><path d="M285.508 396H152.08C139.938 396 130.055 405.836 130.055 417.933C130.055 430.03 139.938 439.865 152.093 439.865H285.508C297.663 439.865 307.546 430.03 307.546 417.933C307.546 405.836 297.65 396 285.508 396Z" fill="black" opacity="0"></path><path d="M281.986 396.478H148.558C136.652 396.478 127 406.083 127 417.933V417.945C127 429.795 136.652 439.401 148.558 439.401H281.986C293.892 439.401 303.544 429.795 303.544 417.945V417.933C303.544 406.083 293.892 396.478 281.986 396.478Z" fill="white" stroke="black" stroke-width="0.75" stroke-linecap="round" stroke-linejoin="round" opacity="0"></path><path d="M281.406 401.879H268.809C260.137 401.879 253.107 408.875 253.107 417.506V418.347C253.107 426.978 260.137 433.974 268.809 433.974H281.406C290.078 433.974 297.108 426.978 297.108 418.347V417.506C297.108 408.875 290.078 401.879 281.406 401.879Z" fill="black" opacity="0"></path><path d="M148.029 428.56C147.675 428.56 147.397 428.283 147.397 427.932V409.064C147.397 408.712 147.675 408.436 148.029 408.436C148.382 408.436 148.66 408.712 148.66 409.064V427.932C148.66 428.283 148.382 428.56 148.029 428.56Z" fill="black" opacity="0"></path><path d="M284.688 426.462L279.563 421.362C280.863 419.98 281.658 418.121 281.658 416.086C281.658 411.803 278.162 408.323 273.858 408.323C269.554 408.323 266.058 411.803 266.058 416.086C266.058 420.37 269.554 423.849 273.858 423.849C275.65 423.849 277.304 423.234 278.617 422.216L283.792 427.367C283.918 427.492 284.082 427.555 284.233 427.555C284.385 427.555 284.562 427.492 284.675 427.367C284.928 427.116 284.928 426.726 284.675 426.475L284.688 426.462ZM267.332 416.074C267.332 412.494 270.261 409.567 273.871 409.567C277.481 409.567 280.409 412.481 280.409 416.074C280.409 419.666 277.481 422.581 273.871 422.581C270.261 422.581 267.332 419.666 267.332 416.074Z" fill="white" opacity="0"></path><path d="M467.521 416.654L473.23 384.844C473.45 383.622 472.627 382.479 471.527 382.479H469.623C468.882 389.915 468.077 400.614 467.261 411.991L467.515 416.543V416.654H467.521Z" fill="black" opacity="0"></path><path d="M467.301 412.825L467.521 374H422.498L422.891 412.464L467.301 412.825Z" fill="white" stroke="black" stroke-width="0.75" stroke-linecap="round" stroke-linejoin="round" opacity="0"></path><path d="M467.296 412.641C468.21 398.237 469.38 383.853 470.393 374.939H467.521C467.29 387.275 467.365 400.201 467.296 412.641Z" fill="#C1C1C1" stroke="black" stroke-width="0.75" stroke-linecap="round" stroke-linejoin="round" opacity="0"></path><path d="M421.062 416.654H467.515L465.466 380.194C465.402 379.097 464.58 378.263 463.613 378.328L453.76 378.939C451.531 379.077 449.459 380.292 448.063 382.276L446.911 383.918L421.184 384.404C419.904 384.43 418.908 385.672 419.007 387.123L421.056 416.661L421.062 416.654Z" fill="#C1C1C1" opacity="0"></path><path d="M421.056 416.622H467.313L465.275 380.319C465.211 379.228 464.389 378.401 463.428 378.46L453.615 379.064C451.392 379.202 449.331 380.411 447.948 382.388L446.801 384.023L421.184 384.509C419.91 384.536 418.92 385.77 419.018 387.216L421.062 416.622H421.056Z" stroke="black" stroke-width="0.75" stroke-linecap="round" stroke-linejoin="round" opacity="0"></path><path d="M396.521 416.654L402.23 384.844C402.45 383.622 401.627 382.479 400.527 382.479H398.623C397.882 389.915 397.077 400.614 396.261 411.991L396.515 416.543V416.654H396.521Z" fill="black" opacity="0"></path><path d="M396.301 412.825L396.521 374H351.498L351.891 412.464L396.301 412.825Z" fill="white" stroke="black" stroke-width="0.75" stroke-linecap="round" stroke-linejoin="round" opacity="0"></path><path d="M396.296 412.641C397.21 398.237 398.38 383.853 399.393 374.939H396.521C396.29 387.275 396.365 400.201 396.296 412.641Z" fill="#C1C1C1" stroke="black" stroke-width="0.75" stroke-linecap="round" stroke-linejoin="round" opacity="0"></path><path d="M350.062 416.654H396.515L394.466 380.194C394.402 379.097 393.58 378.263 392.613 378.328L382.76 378.939C380.531 379.077 378.459 380.292 377.063 382.276L375.911 383.918L350.184 384.404C348.904 384.43 347.908 385.672 348.007 387.123L350.056 416.661L350.062 416.654Z" fill="#C1C1C1" opacity="0"></path><path d="M350.056 416.622H396.313L394.275 380.319C394.211 379.228 393.389 378.401 392.428 378.46L382.615 379.064C380.392 379.202 378.331 380.411 376.948 382.388L375.801 384.023L350.184 384.509C348.91 384.536 347.92 385.77 348.018 387.216L350.062 416.622H350.056Z" stroke="black" stroke-width="0.75" stroke-linecap="round" stroke-linejoin="round" opacity="0"></path><path d="M468.193 258.158H404.52C400.761 258.158 397.713 261.458 397.713 265.529V325.628C397.713 329.7 400.761 333 404.52 333H468.193C471.953 333 475 329.7 475 325.628V265.529C475 261.458 471.953 258.158 468.193 258.158Z" fill="black" opacity="0"></path><path d="M461.293 254H393.82C390.054 254 387 257.286 387 261.339V319.008C387 323.062 390.054 326.347 393.82 326.347H461.293C465.06 326.347 468.113 323.062 468.113 319.008V261.339C468.113 257.286 465.06 254 461.293 254Z" fill="white" stroke="black" stroke-width="0.75" stroke-miterlimit="10" opacity="0"></path><path d="M459.007 274.79H396.871C394.801 274.79 393.122 276.577 393.122 278.781V309.882C393.122 312.087 394.801 313.874 396.871 313.874H459.007C461.078 313.874 462.757 312.087 462.757 309.882V278.781C462.757 276.577 461.078 274.79 459.007 274.79Z" fill="#C1C1C1" opacity="0"></path><path d="M400.531 292.731C401.29 292.731 401.905 292.065 401.905 291.244C401.905 290.423 401.29 289.758 400.531 289.758C399.773 289.758 399.158 290.423 399.158 291.244C399.158 292.065 399.773 292.731 400.531 292.731Z" fill="white" opacity="0"></path><path d="M400.531 299.721C401.29 299.721 401.905 299.056 401.905 298.235C401.905 297.414 401.29 296.749 400.531 296.749C399.773 296.749 399.158 297.414 399.158 298.235C399.158 299.056 399.773 299.721 400.531 299.721Z" fill="white" opacity="0"></path><path d="M400.531 306.389C401.29 306.389 401.905 305.724 401.905 304.903C401.905 304.082 401.29 303.417 400.531 303.417C399.773 303.417 399.158 304.082 399.158 304.903C399.158 305.724 399.773 306.389 400.531 306.389Z" fill="white" opacity="0"></path><path d="M412.029 279.779H401.762C400.371 279.779 399.243 281.082 399.243 282.689C399.243 284.297 400.371 285.6 401.762 285.6H412.029C413.42 285.6 414.548 284.297 414.548 282.689C414.548 281.082 413.42 279.779 412.029 279.779Z" fill="black" opacity="0"></path><path d="M419.604 261.484H395.718C394.284 261.484 393.122 262.787 393.122 264.395C393.122 266.002 394.284 267.305 395.718 267.305H419.604C421.038 267.305 422.2 266.002 422.2 264.395C422.2 262.787 421.038 261.484 419.604 261.484Z" fill="black" opacity="0"></path><path d="M456.021 289.758H405.214C404.452 289.758 403.835 290.502 403.835 291.421C403.835 292.34 404.452 293.084 405.214 293.084H456.021C456.783 293.084 457.4 292.34 457.4 291.421C457.4 290.502 456.783 289.758 456.021 289.758Z" fill="white" opacity="0"></path><path d="M436.912 296.411H405.192C404.442 296.411 403.835 297.155 403.835 298.074C403.835 298.992 404.442 299.737 405.192 299.737H436.912C437.662 299.737 438.27 298.992 438.27 298.074C438.27 297.155 437.662 296.411 436.912 296.411Z" fill="white" opacity="0"></path><path d="M436.912 303.063H405.192C404.442 303.063 403.835 303.808 403.835 304.726C403.835 305.645 404.442 306.389 405.192 306.389H436.912C437.662 306.389 438.27 305.645 438.27 304.726C438.27 303.808 437.662 303.063 436.912 303.063Z" fill="white" opacity="0"></path><path d="M336.171 277H244.829C241.61 277 239 279.67 239 282.963V340.037C239 343.33 241.61 346 244.829 346H336.171C339.39 346 342 343.33 342 340.037V282.963C342 279.67 339.39 277 336.171 277Z" fill="#C1C1C1" opacity="0"></path><path d="M280.09 329.345H245.388C244.601 329.345 243.963 329.958 243.963 330.715V331.02C243.963 331.777 244.601 332.39 245.388 332.39H280.09C280.877 332.39 281.515 331.777 281.515 331.02V330.715C281.515 329.958 280.877 329.345 280.09 329.345Z" fill="white" opacity="0"></path><path d="M273.444 335.213H245.388C244.601 335.213 243.963 335.826 243.963 336.582V336.888C243.963 337.644 244.601 338.257 245.388 338.257H273.444C274.231 338.257 274.869 337.644 274.869 336.888V336.582C274.869 335.826 274.231 335.213 273.444 335.213Z" fill="white" opacity="0"></path><path d="M334.258 334.66H320.797C319.889 334.66 319.154 335.367 319.154 336.24V338.378C319.154 339.251 319.889 339.958 320.797 339.958H334.258C335.166 339.958 335.902 339.251 335.902 338.378V336.24C335.902 335.367 335.166 334.66 334.258 334.66Z" fill="black" opacity="0"></path><path d="M246.243 315.276C246.243 315.276 255.967 301.266 262.558 301.266C269.571 301.266 273.998 307.781 280.271 307.781C287.563 307.781 291.322 295.825 299.737 295.825C308.152 295.825 312.322 302.683 319.893 302.683C327.465 302.683 333.097 290.089 333.097 290.089" stroke="black" stroke-width="0.75" stroke-linecap="round" stroke-linejoin="round" opacity="0"></path><path d="M246.944 316.835C248.118 316.835 249.07 315.92 249.07 314.792C249.07 313.663 248.118 312.748 246.944 312.748C245.77 312.748 244.818 313.663 244.818 314.792C244.818 315.92 245.77 316.835 246.944 316.835Z" fill="black" opacity="0"></path><path d="M262.74 303.362C263.914 303.362 264.865 302.447 264.865 301.319C264.865 300.19 263.914 299.275 262.74 299.275C261.566 299.275 260.614 300.19 260.614 301.319C260.614 302.447 261.566 303.362 262.74 303.362Z" fill="black" opacity="0"></path><path d="M280.331 309.525C281.505 309.525 282.457 308.61 282.457 307.481C282.457 306.352 281.505 305.438 280.331 305.438C279.157 305.438 278.206 306.352 278.206 307.481C278.206 308.61 279.157 309.525 280.331 309.525Z" fill="black" opacity="0"></path><path d="M299.491 297.895C300.665 297.895 301.616 296.98 301.616 295.851C301.616 294.723 300.665 293.808 299.491 293.808C298.317 293.808 297.365 294.723 297.365 295.851C297.365 296.98 298.317 297.895 299.491 297.895Z" fill="black" opacity="0"></path><path d="M319.154 304.726C320.328 304.726 321.279 303.812 321.279 302.683C321.279 301.554 320.328 300.639 319.154 300.639C317.98 300.639 317.028 301.554 317.028 302.683C317.028 303.812 317.98 304.726 319.154 304.726Z" fill="black" opacity="0"></path><path d="M333.097 292.132C334.271 292.132 335.223 291.217 335.223 290.089C335.223 288.96 334.271 288.045 333.097 288.045C331.923 288.045 330.971 288.96 330.971 290.089C330.971 291.217 331.923 292.132 333.097 292.132Z" fill="black" opacity="0"></path><path d="M203.089 317H136.911C133.656 317 131 314.725 131 311.95V277.737C131 274.571 132.921 271.632 136.077 269.969L164.512 255.003C167.953 253.193 172.301 253.198 175.735 255.019L203.948 269.964C207.085 271.626 209 274.56 209 277.716V311.944C209 314.725 206.338 316.995 203.089 316.995V317Z" fill="black" stroke="black" stroke-width="0.75" stroke-linecap="round" stroke-linejoin="round" opacity="0"></path><path d="M203.574 314.089H134.391C136.903 302.498 138.908 276.832 137.261 250.178C147.881 250.178 191.43 249.001 191.43 249.001C194.965 248.886 203.265 255.556 203.265 257.672C203.265 279.626 203.574 314.094 203.574 314.094V314.089Z" fill="white" stroke="black" stroke-width="0.75" stroke-miterlimit="10" opacity="0"></path><path d="M131.678 314.142L165.115 294.929C168.261 293.36 172.151 293.36 175.297 294.929L209 313.442C208.43 315.091 206.263 317 203.389 317H137.023C134.199 317 132.446 315.568 131.678 314.142Z" fill="#C1C1C1" stroke="black" stroke-width="0.75" stroke-linecap="round" stroke-linejoin="round" opacity="0"></path><path d="M175.765 295.129L209 278.06V311.986C209 312.544 208.914 313.066 208.682 313.513L175.765 295.129Z" fill="#C1C1C1" stroke="black" stroke-width="0.75" stroke-linecap="round" stroke-linejoin="round" opacity="0"></path><path d="M203.235 258.009C202.931 254.521 194.617 255.054 194.617 255.054C195.461 251.328 193.389 249.016 191.365 249.016C191.365 249.016 194.07 248.58 198.938 252.286C203.574 255.816 203.235 258.009 203.235 258.009Z" fill="#C1C1C1" stroke="black" stroke-width="0.75" stroke-miterlimit="10" opacity="0"></path><path d="M165.778 255.974H147.092C145.696 255.974 144.565 256.961 144.565 258.178V258.42C144.565 259.637 145.696 260.624 147.092 260.624H165.778C167.173 260.624 168.304 259.637 168.304 258.42V258.178C168.304 256.961 167.173 255.974 165.778 255.974Z" fill="black" opacity="0"></path><path d="M195.234 267.775C195.234 267.775 176.618 267.775 170.678 267.977C164.739 268.179 146.123 268.179 146.123 268.179C145.264 268.179 144.565 267.615 144.565 266.929C144.565 266.242 145.264 265.678 146.123 265.678C146.123 265.678 164.405 265.476 170.678 265.476C176.952 265.476 195.234 265.273 195.234 265.273C196.093 265.273 196.791 265.838 196.791 266.322V266.721C196.791 267.61 196.093 267.77 195.234 267.77V267.775Z" fill="#C1C1C1" opacity="0"></path><path d="M195.234 274.168C195.234 274.168 176.618 274.168 170.678 274.37C164.739 274.572 146.123 274.572 146.123 274.572C145.264 274.572 144.565 274.008 144.565 273.322C144.565 272.635 145.264 272.071 146.123 272.071C146.123 272.071 164.405 271.869 170.678 271.869C176.952 271.869 195.234 271.667 195.234 271.667C196.093 271.667 196.791 272.231 196.791 272.917C196.791 273.604 196.093 274.168 195.234 274.168Z" fill="#C1C1C1" opacity="0"></path><path d="M195.234 280.562C195.234 280.562 176.618 280.562 170.678 280.764C164.739 280.966 146.123 280.966 146.123 280.966C145.264 280.966 144.565 280.402 144.565 279.715C144.565 279.029 145.264 278.465 146.123 278.465C146.123 278.465 164.405 278.262 170.678 278.262C176.952 278.262 195.234 278.06 195.234 278.06C196.093 278.06 196.791 278.624 196.791 279.311C196.791 279.997 196.093 280.562 195.234 280.562Z" fill="#C1C1C1" opacity="0"></path><path d="M177.587 287.723C177.587 287.723 164.925 287.505 158.964 287.723C153.002 287.94 146.128 287.94 146.128 287.94C145.266 287.94 144.565 287.334 144.565 286.596C144.565 285.858 145.266 285.252 146.128 285.252C152.667 285.177 143.511 285.034 161.625 285.034C167.922 285.034 177.593 285.034 177.593 285.034C178.455 285.034 179.156 285.641 179.156 286.378C179.156 287.116 178.455 287.723 177.593 287.723H177.587Z" fill="#C1C1C1" opacity="0"></path><path d="M131 278.06L164.913 294.812L131.584 314.094C131.228 313.49 131.031 312.747 131 311.872V278.06Z" fill="#C1C1C1" stroke="black" stroke-width="0.75" stroke-linecap="round" stroke-linejoin="round" opacity="0"></path></g><path d="M181.754 554.479C182.126 554.934 182.598 555.301 183.136 555.552C183.674 555.804 184.263 555.933 184.859 555.93H402.119C402.713 555.929 403.299 555.799 403.836 555.549C404.372 555.299 404.844 554.936 405.218 554.485C405.593 554.034 405.86 553.508 405.999 552.944C406.139 552.38 406.148 551.792 406.026 551.224L402.654 535.578C402.514 534.94 402.213 534.346 401.778 533.851C401.344 533.356 400.789 532.974 400.165 532.742C399.713 532.569 399.232 532.48 398.746 532.48H188.218C187.733 532.48 187.252 532.569 186.8 532.742C186.176 532.974 185.621 533.356 185.186 533.851C184.751 534.346 184.45 534.94 184.31 535.578L180.938 551.224C180.818 551.792 180.829 552.379 180.97 552.942C181.111 553.505 181.379 554.03 181.754 554.479Z" fill="#2F2E41"></path><path d="M473.75 237.776H132.051C131.696 237.769 131.358 237.626 131.11 237.377C130.861 237.129 130.722 236.796 130.722 236.449C130.722 236.102 130.861 235.769 131.11 235.521C131.358 235.273 131.696 235.13 132.051 235.122H473.75C474.106 235.13 474.443 235.273 474.692 235.521C474.94 235.769 475.079 236.102 475.079 236.449C475.079 236.796 474.94 237.129 474.692 237.377C474.443 237.626 474.106 237.769 473.75 237.776Z" fill="#3F3D56"></path><path d="M155.311 228.346C159.709 228.346 163.275 224.786 163.275 220.395C163.275 216.003 159.709 212.443 155.311 212.443C150.913 212.443 147.348 216.003 147.348 220.395C147.348 224.786 150.913 228.346 155.311 228.346Z" fill="#3F3D56"></path><path d="M182.821 228.346C187.219 228.346 190.785 224.786 190.785 220.395C190.785 216.003 187.219 212.443 182.821 212.443C178.423 212.443 174.858 216.003 174.858 220.395C174.858 224.786 178.423 228.346 182.821 228.346Z" fill="#3F3D56"></path><path d="M210.332 228.346C214.73 228.346 218.295 224.786 218.295 220.395C218.295 216.003 214.73 212.443 210.332 212.443C205.934 212.443 202.368 216.003 202.368 220.395C202.368 224.786 205.934 228.346 210.332 228.346Z" fill="#3F3D56"></path><path d="M457.185 214.41H437.645C437.259 214.418 436.892 214.574 436.622 214.844C436.352 215.114 436.201 215.477 436.201 215.854C436.201 216.231 436.352 216.594 436.622 216.864C436.892 217.134 437.259 217.29 437.645 217.298H457.185C457.573 217.293 457.944 217.138 458.217 216.868C458.49 216.598 458.643 216.234 458.643 215.854C458.643 215.474 458.49 215.11 458.217 214.84C457.944 214.57 457.573 214.415 457.185 214.41Z" fill="#3F3D56"></path><path d="M457.185 219.834H437.646C437.259 219.843 436.891 219.999 436.621 220.269C436.35 220.539 436.199 220.901 436.199 221.279C436.199 221.656 436.35 222.019 436.621 222.289C436.891 222.559 437.259 222.715 437.646 222.723H457.185C457.574 222.719 457.945 222.564 458.219 222.294C458.492 222.024 458.646 221.659 458.646 221.279C458.646 220.899 458.492 220.534 458.219 220.264C457.945 219.993 457.574 219.839 457.185 219.834Z" fill="#3F3D56"></path><path d="M457.185 225.259H437.645C437.259 225.268 436.892 225.424 436.622 225.694C436.352 225.963 436.201 226.326 436.201 226.703C436.201 227.08 436.352 227.443 436.622 227.713C436.892 227.983 437.259 228.139 437.645 228.147H457.185C457.573 228.142 457.944 227.988 458.217 227.717C458.49 227.447 458.643 227.083 458.643 226.703C458.643 226.324 458.49 225.959 458.217 225.689C457.944 225.419 457.573 225.264 457.185 225.259Z" fill="#3F3D56"></path><path d="M525.649 545.565C526.239 547.241 527.357 548.693 528.844 549.71C530.331 550.727 532.109 551.258 533.924 551.226L569.378 550.335C571.206 550.3 572.974 549.688 574.417 548.591C575.859 547.494 576.9 545.97 577.382 544.248L582.399 491.849C584.179 492.637 586.117 493.026 588.071 492.988C589.769 492.946 591.441 492.578 592.993 491.905C594.545 491.233 595.946 490.268 597.116 489.066C598.286 487.864 599.202 486.449 599.813 484.902C600.423 483.354 600.715 481.704 600.672 480.046C600.63 478.388 600.253 476.755 599.564 475.239C598.875 473.724 597.887 472.355 596.657 471.212C595.427 470.069 593.978 469.175 592.393 468.579C590.809 467.983 589.12 467.697 587.422 467.739C586.641 467.736 585.862 467.816 585.099 467.975C584.268 467.097 583.259 466.399 582.135 465.926C581.012 465.452 579.799 465.214 578.576 465.226L524.039 466.601C523.587 466.618 523.137 466.672 522.694 466.765C521.498 466.982 520.364 467.448 519.367 468.13C518.371 468.811 517.536 469.694 516.918 470.717C516.3 471.741 515.914 472.882 515.785 474.063C515.656 475.245 515.788 476.44 516.172 477.567L525.649 545.565ZM583.428 488.292L586.998 475.805C587.405 474.363 587.414 472.841 587.026 471.394C587.199 471.394 587.352 471.314 587.525 471.313C589.973 471.264 592.341 472.165 594.11 473.818C595.879 475.471 596.905 477.742 596.962 480.133C597.019 482.523 596.104 484.839 594.416 486.571C592.728 488.303 590.406 489.311 587.958 489.374C586.375 489.422 584.809 489.048 583.428 488.292Z" fill="#2F2E41"></path><linearGradient id="paint0_linear_893_29" x1="465.769" y1="12" x2="465.769" y2="680" gradientUnits="userSpaceOnUse"><stop stop-opacity="0.17"></stop><stop offset="1" stop-color="#382FE6" stop-opacity="0.05"></stop></linearGradient></svg>
